<svg xmlns="http://www.w3.org/2000/svg" viewBox="0 0 28.87 28.87"><g data-name="Layer 2"><g data-name="Layer 1"><rect width="28.87" height="28.87" fill="#fd3832" rx="6.48" ry="6.48"/><path fill="#fff" d="M13.06 6.51h-.9l-.61 2.33-.63-2.33H10l.57 1.65A14.52 14.52 0 0 1 11.1 10v2.4h.9V10zM15.44 11V9.47a1.73 1.73 0 0 0-.25-1 1.19 1.19 0 0 0-1.87 0 1.72 1.72 0 0 0-.25 1V11a1.71 1.71 0 0 0 .25 1 1.19 1.19 0 0 0 1.87 0 1.73 1.73 0 0 0 .25-1zm-.8.15c0 .41-.12.61-.38.61s-.38-.2-.38-.61V9.31c0-.41.12-.61.38-.61s.38.2.38.61zm3.77 1.28V8h-.8v3.38c-.18.25-.35.38-.51.38s-.17-.06-.19-.19a1.87 1.87 0 0 1 0-.31V8h-.8v3.5a2.24 2.24 0 0 0 .07.66.49.49 0 0 0 .52.33 1.29 1.29 0 0 0 .9-.49v.48zM15.89 16.91a.57.57 0 0 0-.4.19v2.67a.56.56 0 0 0 .4.19c.23 0 .34-.19.34-.59V17.5c0-.39-.11-.59-.34-.59zM18.83 16.91c-.27 0-.4.2-.4.61v.4h.79v-.4c.01-.41-.13-.61-.39-.61z"/><path fill="#fff" d="M20.77 14.68a1.65 1.65 0 0 0-1.42-1.29 44 44 0 0 0-4.91-.18 44 44 0 0 0-4.91.18 1.65 1.65 0 0 0-1.43 1.29 14.07 14.07 0 0 0-.23 3.1 14.06 14.06 0 0 0 .23 3.1 1.66 1.66 0 0 0 1.42 1.29 44.21 44.21 0 0 0 4.92.18 44.22 44.22 0 0 0 4.91-.18 1.66 1.66 0 0 0 1.42-1.29 14.07 14.07 0 0 0 .23-3.1 14.07 14.07 0 0 0-.23-3.1zm-9.15.89h-1v5h-.84v-5h-.93v-.83h2.77zm2.4 5h-.79v-.48a1.27 1.27 0 0 1-.91.54.49.49 0 0 1-.51-.33 2.21 2.21 0 0 1-.07-.65v-3.4h.79v3.22a2.27 2.27 0 0 0 0 .31c0 .12.08.19.19.19s.33-.12.5-.37v-3.35H14zm3-1.31a3.51 3.51 0 0 1-.08.88.63.63 0 0 1-.63.49 1.08 1.08 0 0 1-.82-.48v.42h-.79v-5.82h.79v1.92a1.07 1.07 0 0 1 .82-.47.63.63 0 0 1 .63.49 3.4 3.4 0 0 1 .08.88zm3-.73h-1.58v.78c0 .41.13.61.4.61a.34.34 0 0 0 .35-.32 4.9 4.9 0 0 0 0-.54H20v.63a1.12 1.12 0 0 1-.18.48 1.1 1.1 0 0 1-1 .47 1.14 1.14 0 0 1-1-.45 1.7 1.7 0 0 1-.25-1v-1.52a1.7 1.7 0 0 1 .25-1 1.13 1.13 0 0 1 1-.45 1.1 1.1 0 0 1 .94.45 1.73 1.73 0 0 1 .25 1z"/></g></g></svg>